<svg xmlns="http://www.w3.org/2000/svg" xmlns:xlink="http://www.w3.org/1999/xlink" version="1.1" width="3179.640718562874" 
        height="2748.502994011976" viewBox="0 0 3179.640718562874 2748.502994011976">
			
			<g transform="scale(8.982035928143713) translate(10, 10)">
				<defs id="SvgjsDefs4199"></defs><g id="SvgjsG4200" featureKey="symbolFeature-0" transform="matrix(0.900659233056422,0,0,0.900659233056422,-6.877680558995275,97.56651582803536)" fill="#10aafd"><path xmlns="http://www.w3.org/2000/svg" d="M72.5,59.6c0.8,1.7,1.6,3.4,2.3,5.2c1.5,3.5,2.7,7.1,3.3,10.9c0.4,2.3,0.5,4.6-0.2,6.9c-0.7,2.4-2.5,3.7-5,3.7  c-2.3,0-4.3-0.8-6.3-1.8c-1.7-0.9-3.4-2-5.1-3.1c-0.7-0.5-1.3-0.6-2.2-0.3c-2.7,1-5.7-1.7-5.3-4.5c0.2-1.2,0.1-1.4-1-2.2  c-0.1,0.2-0.3,0.4-0.4,0.6c-2.4,3.5-5,6.9-8,9.9c-1.9,1.8-3.9,3.6-6.3,4.7c-1.2,0.5-2.4,0.9-3.7,0.8c-2-0.1-3.3-1.3-4.1-2.9  c-0.9-1.7-1.2-3.6-1.4-5.5c-0.4-5.3,0.4-10.4,1.6-15.5c0.1-0.4,0.2-0.8,0.3-1.3c-0.2,0-0.4-0.1-0.6-0.1c-4.7-0.2-9.4-0.8-14-2.1  c-2.1-0.6-4.1-1.4-5.9-2.7c-0.5-0.4-1-0.8-1.4-1.2c-1.7-1.9-1.9-4-0.7-6.2c1.1-1.9,2.7-3.3,4.5-4.5c1.7-1.1,3.5-2.1,5.3-3.1  c0.4-0.2,0.5-0.4,0.6-0.9c0.1-1.7,0.9-2.9,2.5-3.6c1.6-0.7,3.1-0.5,4.4,0.6c0.5,0.4,0.9,0.5,1.5,0.3c0.3-0.2,0.7-0.3,1.1-0.3  c0.4-0.1,0.5-0.3,0.3-0.7c-1.6-3.2-3-6.5-4.1-10c-0.9-2.8-1.6-5.7-1.7-8.7c0-1.3,0.1-2.6,0.5-3.8c0.8-2.7,3.1-4.1,6-3.7  c3,0.4,5.6,1.8,8.2,3.3c3.7,2.3,6.9,5.1,10.1,8c0.2,0.2,0.4,0.4,0.6,0.6c0.9-1.2,1.7-2.4,2.6-3.6c2.3-3.1,4.8-6,7.7-8.5  c1.7-1.4,3.4-2.7,5.5-3.4c0.9-0.3,1.8-0.5,2.7-0.4c2.6,0.1,3.9,1.9,4.7,4.1c0.7,2,0.9,4,0.9,6.1c0,1.6-0.1,3.2-0.2,4.7  c0,0.2,0.2,0.5,0.4,0.6c1,0.6,1.6,1.5,1.9,2.6c0.6,2.2-0.8,4.5-3,5.1c-0.5,0.1-0.8,0.3-0.8,0.8c0,0.2-0.1,0.4-0.2,0.6  c-0.2,0.6-0.1,0.6,0.5,0.6c4,0.2,7.9,0.6,11.8,1.5c2.7,0.6,5.3,1.5,7.7,3c1.3,0.8,2.4,1.8,3,3.2c0.6,1.5,0.5,2.9-0.3,4.3  c-1,1.8-2.4,3.2-4,4.4c-3.2,2.4-6.8,4.1-10.6,5.5C76.5,58.2,74.5,58.9,72.5,59.6z M24.6,20.3c0.1,1.7,0.4,3.3,0.9,4.9  c1.4,5,3.6,9.7,6,14.4c0.2,0.4,0.5,0.4,0.9,0.3c2.8-0.7,5.7-1.3,8.5-2c0.3-0.1,0.6-0.3,0.7-0.6c1.5-2.7,3-5.4,4.6-8.1  c0.2-0.4,0.2-0.6-0.1-0.9c-2-1.9-3.9-3.8-5.9-5.6c-2.4-2.1-4.8-4-7.7-5.5c-1.4-0.7-2.7-1.3-4.3-1.4c-1.5-0.1-2.6,0.6-3.1,1.9  C24.8,18.6,24.7,19.4,24.6,20.3z M71.1,38.5c-0.3,0-0.8,0-1.2,0c-0.4,0-0.5,0.2-0.7,0.5c-1,3-1.9,6-2.9,9c-0.1,0.4-0.1,0.7,0.1,1.1  c1.4,2.4,2.9,4.8,4.3,7.2c0.3,0.5,0.5,0.6,1,0.4c3-1,6-1.9,9-3c3-1.1,5.9-2.5,8.5-4.4c1-0.7,1.8-1.5,2.5-2.5  c0.8-1.4,0.7-2.7-0.4-3.8c-0.2-0.2-0.5-0.4-0.7-0.6c-1.3-0.9-2.8-1.5-4.3-1.9C81.2,39,76.2,38.7,71.1,38.5z M31.3,81.7  c0,0.6,0.1,1.6,0.2,2.7c0.2,1.1,0.5,2.2,1.2,3.1c0.7,0.9,1.6,1.2,2.6,1.1c1.3-0.1,2.4-0.8,3.4-1.5c2.1-1.5,3.9-3.5,5.5-5.4  c2.4-2.9,4.5-6,6.6-9.2c0.2-0.3,0.2-0.5,0-0.7c-2-2.3-4.1-4.6-6.1-6.8c-0.2-0.2-0.5-0.3-0.7-0.3c-3.1,0.1-6.1,0.2-9.2,0.3  c-0.5,0-0.8,0.1-0.9,0.6c-0.4,1.6-0.8,3.2-1.2,4.8C31.9,74,31.4,77.6,31.3,81.7z M76.6,80.4c-0.1-2-0.4-3.7-0.9-5.4  c-1.4-5-3.6-9.7-6-14.2c-0.2-0.3-0.4-0.3-0.7-0.3c-2.9,0.7-5.8,1.3-8.7,2c-0.2,0.1-0.5,0.2-0.6,0.4c-1.6,2.8-3.1,5.6-4.7,8.3  c-0.2,0.3-0.1,0.5,0.1,0.7c0.3,0.3,0.6,0.6,0.9,0.9c0.2,0.3,0.5,0.3,0.8,0.2c0.5-0.2,1-0.3,1.5-0.4c2.2-0.2,5,2.2,4.1,5.2  c-0.2,0.6,0,1,0.4,1.3c1.3,0.9,2.5,1.8,3.7,2.7c1.7,1.2,3.6,2.1,5.6,2.6c2.2,0.5,3.8-0.5,4.2-2.7C76.6,81.2,76.6,80.7,76.6,80.4z   M29.9,61.9c0.5,0,1.1,0,1.6,0c0.3,0,0.5-0.1,0.5-0.4c1-3.1,2-6.2,3-9.3c0.1-0.2,0-0.5-0.1-0.7c-1.5-2.6-3-5.1-4.5-7.7  c-0.2-0.3-0.3-0.3-0.6-0.3c-0.6,0.2-1.2,0.3-1.8,0.5c-0.5,0.1-0.9,0.4-0.9,1c-0.1,1-0.6,1.8-1.3,2.4c-1.7,1.4-3.9,1.4-5.6-0.1  c-0.2-0.2-0.4-0.4-0.8-0.2c-2.5,1.1-4.9,2.2-7.1,3.8c-1.1,0.8-2,1.6-2.7,2.8c-0.8,1.4-0.6,2.7,0.5,3.8c0.5,0.5,1.1,0.9,1.6,1.2  c1.6,0.9,3.4,1.4,5.3,1.8C21.3,61.5,25.6,61.7,29.9,61.9z M64.1,35.4C64.1,35.5,64.1,35.5,64.1,35.4c0.9,0.1,1.7,0,2.5,0.1  c0.3,0,0.5-0.1,0.5-0.4c0.1-0.6,0.3-1.1,0.5-1.7c0.1-0.4,0-0.6-0.3-0.9c-2.5-2-1.7-6.2,1.5-7.1c0.4-0.1,0.5-0.3,0.6-0.7  c0.3-2.7,0.6-5.4,0.3-8.1c-0.1-1.3-0.4-2.5-1.1-3.6c-0.7-1-1.7-1.5-2.9-1.3c-1,0.2-1.9,0.6-2.7,1.2c-1.7,1.1-3.1,2.5-4.4,3.9  c-3.2,3.4-5.8,7.2-8.3,11.1c-0.2,0.3-0.1,0.5,0.1,0.8c1.9,2.1,3.7,4.1,5.5,6.2c0.5,0.6,1,0.9,1.8,0.8C59.9,35.6,62,35.5,64.1,35.4z   M46.1,61.3c1.3-0.2,2.6-0.3,3.8-0.4c2.5-0.3,5-0.7,7.5-1c0.4,0,0.6-0.2,0.7-0.5c1.5-3.3,2.9-6.6,4.4-10c0.1-0.2,0-0.6-0.1-0.8  c-0.5-0.8-1-1.6-1.6-2.3c-1.5-2-3-4.1-4.4-6.1c-0.5-0.8-1.2-1.1-2.2-1c-1.7,0.2-3.5,0.4-5.2,0.6c-1.6,0.2-3.1,0.5-4.7,0.7  c-0.4,0.1-0.7,0.1-0.9,0.5c-1.5,3.3-3,6.7-4.4,10c-0.1,0.2-0.1,0.6,0.1,0.7c2.2,3.1,4.5,6.1,6.7,9.2C45.7,61.2,46,61.3,46.1,61.3z   M37.3,55.1c-0.8,2.3-1.5,4.5-2.3,6.9c2.4-0.1,4.7-0.2,7.1-0.3C40.4,59.4,38.9,57.3,37.3,55.1z M64,45.3c0.8-2.3,1.5-4.5,2.3-6.8  c-2.4,0.1-4.7,0.2-7.1,0.3C60.8,41,62.4,43.1,64,45.3z M52.7,69.4c1.1-2.1,2.2-4.1,3.4-6.1c-2.7,0.4-5.2,0.7-7.8,1  C49.7,66,51.2,67.7,52.7,69.4z M48.5,31c-1.1,2.1-2.2,4.1-3.4,6.1c2.7-0.3,5.2-0.7,7.8-1C51.5,34.4,50.1,32.7,48.5,31z M39.5,41.4  c-0.1,0-0.2,0-0.3,0c-1.8,0.4-3.6,0.8-5.4,1.2c-0.4,0.1-0.5,0.2-0.3,0.6c0.9,1.5,1.9,3.1,2.8,4.6c0.1,0.1,0.2,0.2,0.3,0.3  C37.6,45.9,38.5,43.7,39.5,41.4z M64.7,52.2c-1,2.3-2,4.6-3,6.9c2.1-0.5,4.2-0.9,6.3-1.4C66.9,55.8,65.8,54,64.7,52.2z"></path><path xmlns="http://www.w3.org/2000/svg" d="M43.7,50.2c0-3.8,3.1-6.9,6.9-6.9c3.9,0,7,3.1,7,7c0,3.9-3,6.9-6.9,6.9C46.4,57.2,43.7,53.9,43.7,50.2z"></path></g><g id="SvgjsG4201" featureKey="textGroupContainer" transform="matrix(1,0,0,1,333,0)" fill="#10aafd"><rect xmlns="http://www.w3.org/2000/svg" y="0" height="1" width="1" opacity="0"></rect><rect xmlns="http://www.w3.org/2000/svg" y="0" x="-235" width="5" height="286"></rect></g><g id="SvgjsG4202" featureKey="nameFeature-0" transform="matrix(8.376727789579707,0,0,8.376727789579707,107.62119415759793,21.22660885425853)" fill="#ffffff"><path d="M5.668 13.7074 l1.9701 2.581 c0.11348 0.14889 0.08502 0.36146 -0.063692 0.47494 c-0.14906 0.11348 -0.36164 0.084844 -0.47496 -0.063712 l-1.7328 -2.2702 l-1.6022 1.633 l0 2.5553 c0 0.7622 -0.61992 1.3821 -1.3821 1.3821 s-1.3821 -0.61992 -1.3821 -1.3821 l0 -11.098 c0 -0.7622 0.61992 -1.3821 1.3821 -1.3821 s1.3821 0.61992 1.3821 1.3821 c0 0.18699 -0.15176 0.33876 -0.33876 0.33876 s-0.33876 -0.15176 -0.33876 -0.33876 c0 -0.38196 -0.32268 -0.70462 -0.70462 -0.70462 s-0.70462 0.32268 -0.70462 0.70462 l0 11.098 c0 0.38856 0.31606 0.7046 0.7046 0.7046 s0.7046 -0.31606 0.7046 -0.7046 l0 -2.6938 c0 -0.088594 0.034726 -0.17379 0.096894 -0.23712 l1.9729 -2.0108 c0.06877 -0.070118 0.16209 -0.10756 0.26288 -0.10096 c0.098066 0.0060938 0.18869 0.054376 0.24832 0.13246 z M7.3278 12.464 l4.0248 5.2762 c0.2356 0.27558 0.34654 0.62636 0.31268 0.98968 c-0.034044 0.36738 -0.21952 0.71054 -0.50898 0.94328 c-0.2412 0.21376 -0.54608 0.32672 -0.88264 0.32672 c-0.38992 0 -0.76746 -0.18191 -1.0363 -0.49916 c-0.0035546 -0.0043946 -0.0071094 -0.0089648 -0.010664 -0.013359 l-1.417 -1.8567 c-0.11348 -0.14889 -0.08502 -0.36146 0.063692 -0.47494 c0.14871 -0.11365 0.36144 -0.085196 0.47492 0.063692 l1.4114 1.8495 c0.13924 0.16125 0.32622 0.25356 0.51408 0.25356 c0.17496 0 0.31792 -0.052168 0.43714 -0.15955 c0.0054296 -0.0049218 0.011016 -0.009668 0.016602 -0.014063 c0.1499 -0.11857 0.24576 -0.29422 0.26338 -0.48172 c0.016777 -0.1809 -0.038946 -0.3552 -0.15684 -0.49086 c-0.004746 -0.005586 -0.0094922 -0.011172 -0.01373 -0.016934 l-4.2114 -5.5204 c-0.10299 -0.13516 -0.090118 -0.3257 0.030312 -0.44546 l4.1736 -4.1546 c0.26642 -0.27932 0.26896 -0.73054 -0.00052734 -1 c-0.27592 -0.27574 -0.7246 -0.27608 -1.0005 0.000019531 l-6.1462 6.165 c-0.09705 0.097226 -0.24272 0.12602 -0.36924 0.074024 c-0.1267 -0.0525 -0.20936 -0.17598 -0.20936 -0.31318 l0 -3.673 c0 -0.18699 0.15176 -0.33876 0.33876 -0.33876 s0.33876 0.15176 0.33876 0.33876 l0 2.8534 l5.5678 -5.585 c0.2661 -0.26642 0.61382 -0.41278 0.97952 -0.41278 c0.36586 0 0.7136 0.14652 0.97936 0.41244 c0.52762 0.52728 0.53016 1.4035 0.0054102 1.953 z M24.794 18.1194 c0.25594 0.74222 -0.10688 1.5299 -0.823 1.8014 c-0.17125 0.068262 -0.37484 0.078926 -0.4807 0.078926 c-0.57606 0 -1.0928 -0.35636 -1.2858 -0.88688 l-0.84554 -2.2432 l-4.1412 0 l-0.8469 2.247 c-0.2207 0.54016 -0.73104 0.88332 -1.3034 0.88332 c-0.16684 0 -0.3154 -0.023536 -0.4675 -0.07418 c-0.72936 -0.27642 -1.0923 -1.064 -0.8393 -1.7976 l4.1954 -11.182 c0.22274 -0.54472 0.76644 -0.89906 1.3229 -0.88398 c0.56894 -0.021856 1.0966 0.33146 1.3188 0.87466 l1.277 3.4026 c0.065722 0.17514 -0.023028 0.37026 -0.19816 0.43598 c-0.17531 0.065722 -0.37042 -0.023028 -0.43616 -0.19816 l-1.2732 -3.3934 c-0.11434 -0.27896 -0.37924 -0.45968 -0.67362 -0.44446 c-0.01 0.00050782 -0.02 0.00017578 -0.030156 0 c-0.27812 -0.013047 -0.5637 0.17801 -0.6765 0.45392 l-4.189 11.164 c-0.12975 0.3767 0.057422 0.78932 0.42904 0.93024 c0.068946 0.022696 0.14721 0.034882 0.2402 0.034882 c0.29608 0 0.56014 -0.17803 0.67296 -0.45362 l0.92618 -2.4574 c0.049804 -0.13195 0.176 -0.21936 0.31708 -0.21936 l4.6098 0 c0.14109 0 0.26744 0.087402 0.31708 0.21936 l0.92954 2.4664 c0.097226 0.26744 0.35806 0.4446 0.6504 0.4446 c0.11281 0 0.19717 -0.017617 0.23494 -0.032696 c0.3772 -0.1433 0.56438 -0.55574 0.4314 -0.94092 l-2.4026 -6.403 c-0.065722 -0.17514 0.023028 -0.37026 0.19816 -0.43598 c0.17531 -0.065898 0.37042 0.023028 0.43616 0.19816 z M18.256 13.0796 c0.17514 0.065898 0.26354 0.26136 0.19766 0.4365 l-0.22222 0.58944 l2.0942 0 l-1.0471 -2.779 l-0.32946 0.87452 c-0.066054 0.17496 -0.26134 0.26304 -0.43648 0.19768 c-0.17514 -0.065898 -0.26374 -0.26152 -0.19768 -0.43648 l0.64634 -1.716 c0.049804 -0.13195 0.176 -0.21936 0.31708 -0.21936 s0.26744 0.087402 0.31708 0.21936 l1.5366 4.0786 c0.039122 0.104 0.024902 0.2207 -0.038438 0.31216 s-0.16734 0.146 -0.27864 0.146 l-3.0732 0 c-0.11129 0 -0.21546 -0.054532 -0.27864 -0.146 s-0.077578 -0.20816 -0.038456 -0.31216 l0.39482 -1.0478 c0.065898 -0.17531 0.26136 -0.26374 0.4365 -0.1975 z"></path></g><g id="SvgjsG4203" featureKey="sloganFeature-0" transform="matrix(1.0443864437807735,0,0,1.0443864437807735,116.00000012450056,193.92432208196817)" fill="#ffffff"><path d="M3.32 14.36 l-2.16 0 l0 5.64 l-1.16 0 l0 -15 l3.62 0 c1.32 0 2.3566 0.40334 3.11 1.21 s1.13 1.9767 1.13 3.51 c0 0.68 -0.11 1.3033 -0.33 1.87 s-0.53 1.0567 -0.93 1.47 s-0.87666 0.73334 -1.43 0.96 s-1.17 0.34 -1.85 0.34 z M3.22 6.02 l-2.06 0.000019531 l0 7.24 l1.86 0 c0.68 0 1.2533 -0.09666 1.72 -0.29 s0.84332 -0.45334 1.13 -0.78 s0.49332 -0.70666 0.61998 -1.14 s0.19 -0.89 0.19 -1.37 c0 -0.49334 -0.04666 -0.96334 -0.14 -1.41 s-0.26668 -0.83666 -0.52002 -1.17 s-0.60668 -0.59668 -1.06 -0.79002 s-1.0333 -0.29 -1.74 -0.29 z M9.200000000000001 20 l0 -15 l1.28 0 l0 15 l-1.28 0 z M20.200000000000003 20 l-3.36 -7.36 l-3.34 7.36 l-1.38 0 l3.64 -7.5 l-3.64 -7.5 l1.38 0 l3.34 7.36 l3.36 -7.36 l1.36 0 l-3.64 7.5 l3.64 7.5 l-1.36 0 z M22.400000000000002 20 l0 -15 l7.36 0 l0 1.16 l-6.32 0 l0 5.7 l6.26 0 l0 0.92 l-6.26 0 l0 6.06 l6.46 0 l0 1.16 l-7.5 0 z M31.300000000000004 20 l0 -15 l1.08 0 l0 13.92 l5.1 0 l0 1.08 l-6.18 0 z M41.86 20.18 c-0.65334 0 -1.2335 -0.086738 -1.7401 -0.26008 s-0.93332 -0.45 -1.28 -0.83 s-0.60332 -0.87666 -0.76998 -1.49 s-0.23666 -1.3533 -0.21 -2.22 l1.2 0 c0 0.42666 0.02 0.87 0.06 1.33 s0.14666 0.88 0.32 1.26 s0.43668 0.69 0.79002 0.93 s0.84334 0.36 1.47 0.36 c0.53334 0 0.98668 -0.08 1.36 -0.24 s0.67668 -0.37334 0.91002 -0.64 s0.39668 -0.58 0.49002 -0.94 s0.14 -0.73334 0.14 -1.12 c0 -0.45334 -0.08334 -0.85 -0.25 -1.19 s-0.38666 -0.64334 -0.66 -0.91 s-0.59334 -0.50332 -0.96 -0.70998 s-0.75 -0.39 -1.15 -0.55 c-0.64 -0.25334 -1.2 -0.50334 -1.68 -0.75 s-0.87334 -0.52332 -1.18 -0.82998 s-0.53666 -0.66332 -0.69 -1.07 s-0.23 -0.90332 -0.23 -1.49 c0 -1.3333 0.35 -2.3266 1.05 -2.98 s1.7033 -0.98 3.01 -0.98 c1.1333 0 2.03 0.33 2.69 0.99 s0.99 1.65 0.99 2.97 l0 1.1 l-1.12 0 l0 -1.2 c0 -0.41334 -0.05 -0.79668 -0.15 -1.15 s-0.25666 -0.66334 -0.47 -0.93 s-0.48334 -0.47666 -0.81 -0.63 s-0.71666 -0.23 -1.17 -0.23 c-1.0667 0 -1.83 0.28 -2.29 0.84 s-0.67 1.3133 -0.63 2.26 c0.01334 0.41334 0.09 0.76668 0.23 1.06 s0.32666 0.55 0.56 0.77 s0.51334 0.41666 0.84 0.59 s0.69 0.34668 1.09 0.52002 c0.46666 0.2 0.93 0.41334 1.39 0.64 s0.89 0.50666 1.29 0.84 c0.4 0.34666 0.73 0.75 0.99 1.21 s0.39 1.03 0.39 1.71 c0 1.32 -0.33666 2.31 -1.01 2.97 s-1.61 0.99 -2.81 0.99 z M61.379999999999995 20 l-0.98 0 l-2.74 -13.4 l-2.72 13.4 l-0.96 0 l-3.44 -15 l1.06 0 l2.74 13.08 l3.02 -13.08 l0.64 0 l3 13.08 l2.74 -13.08 l1.08 0 z M66.2 20 l0 -15 l1.28 0 l0 15 l-1.28 0 z M73.36 6.1 l0 13.9 l-1.16 0 l0 -13.9 l-3.26 0 l0 -1.1 l7.68 0 l0 1.1 l-3.26 0 z M84.10000000000001 20 l-0.02 -6.98 l-5.48 0 l0.02 6.98 l-1.16 0 l0 -15 l1.16 0 l-0.02 6.96 l5.48 0 l0.02 -6.96 l1.18 0 l0 15 l-1.18 0 z M93.62 14.36 l-2.16 0 l0 5.64 l-1.16 0 l0 -15 l3.62 0 c1.32 0 2.3566 0.40334 3.11 1.21 s1.13 1.9767 1.13 3.51 c0 0.68 -0.11 1.3033 -0.33 1.87 s-0.53 1.0567 -0.93 1.47 s-0.87666 0.73334 -1.43 0.96 s-1.17 0.34 -1.85 0.34 z M93.52000000000001 6.02 l-2.06 0.000019531 l0 7.24 l1.86 0 c0.68 0 1.2533 -0.09666 1.72 -0.29 s0.84332 -0.45334 1.13 -0.78 s0.49332 -0.70666 0.61998 -1.14 s0.19 -0.89 0.19 -1.37 c0 -0.49334 -0.04666 -0.96334 -0.14 -1.41 s-0.26668 -0.83666 -0.52002 -1.17 s-0.60668 -0.59668 -1.06 -0.79002 s-1.0333 -0.29 -1.74 -0.29 z M102.94000000000001 20.18 c-1.2267 0 -2.1768 -0.33336 -2.85 -1 s-1.01 -1.6533 -1.01 -2.96 l0 -11.22 l1.08 0 l0 11.16 c0 0.32 0.04334 0.65666 0.13 1.01 s0.23666 0.67334 0.45 0.96 s0.49668 0.52332 0.85002 0.70998 s0.79 0.28 1.31 0.28 c0.57334 0 1.0467 -0.08334 1.42 -0.25 s0.67334 -0.39666 0.9 -0.69 s0.38666 -0.64 0.48 -1.04 s0.14 -0.82666 0.14 -1.28 l0 -10.86 l1.06 0 l0 11.22 c0 1.3333 -0.32334 2.3266 -0.97 2.98 s-1.6433 0.98 -2.99 0.98 z M116.10000000000002 20 l-3.3 -6.22 l-3.06 0 l0 6.22 l-0.98 0 l0 -15 l3.4 0 c0.78666 0 1.46 0.11666 2.02 0.35 s1.02 0.55 1.38 0.95 s0.62666 0.86334 0.8 1.39 s0.26 1.0767 0.26 1.65 c0 0.97334 -0.25 1.85 -0.75 2.63 s-1.1567 1.35 -1.97 1.71 l3.52 6.32 l-1.32 0 z M112.02000000000002 5.92 l-2.28 -0.000019531 l0 6.84 l2.42 0 c0.68 0 1.24 -0.10334 1.68 -0.31 s0.78334 -0.47332 1.03 -0.79998 s0.42 -0.7 0.52 -1.12 s0.15 -0.85 0.15 -1.29 c0 -0.46666 -0.08 -0.9 -0.24 -1.3 s-0.39 -0.75 -0.69 -1.05 s-0.66666 -0.53666 -1.1 -0.71 s-0.93 -0.26 -1.49 -0.26 z M121.96000000000001 14.36 l-2.16 0 l0 5.64 l-1.16 0 l0 -15 l3.62 0 c1.32 0 2.3566 0.40334 3.11 1.21 s1.13 1.9767 1.13 3.51 c0 0.68 -0.11 1.3033 -0.33 1.87 s-0.53 1.0567 -0.93 1.47 s-0.87666 0.73334 -1.43 0.96 s-1.17 0.34 -1.85 0.34 z M121.86000000000001 6.02 l-2.06 0.000019531 l0 7.24 l1.86 0 c0.68 0 1.2533 -0.09666 1.72 -0.29 s0.84332 -0.45334 1.13 -0.78 s0.49332 -0.70666 0.61998 -1.14 s0.19 -0.89 0.19 -1.37 c0 -0.49334 -0.04666 -0.96334 -0.14 -1.41 s-0.26668 -0.83666 -0.52002 -1.17 s-0.60668 -0.59668 -1.06 -0.79002 s-1.0333 -0.29 -1.74 -0.29 z M131.22 20.18 c-2.52 0 -3.78 -1.32 -3.78 -3.96 l0 -7.4 c0 -1.3333 0.31666 -2.3266 0.95 -2.98 s1.6567 -0.98 3.07 -0.98 c1.2933 0 2.25 0.33 2.87 0.99 s0.93 1.6367 0.93 2.93 l0 7.44 c0 0.66666 -0.07 1.2467 -0.21 1.74 s-0.37 0.90668 -0.69 1.24 s-0.73666 0.58 -1.25 0.74 s-1.1433 0.24 -1.89 0.24 z M134.20000000000002 8.76 c0 -0.33334 -0.04664 -0.67338 -0.13998 -1.02 s-0.24668 -0.66332 -0.46002 -0.94998 s-0.49668 -0.52 -0.85002 -0.7 s-0.79 -0.27 -1.31 -0.27 c-0.57334 0 -1.05 0.08 -1.43 0.24 s-0.68 0.38334 -0.9 0.67 s-0.37666 0.62332 -0.47 1.01 s-0.14 0.80666 -0.14 1.26 l0 7.1 c0 0.34666 0.04 0.7 0.12 1.06 s0.22334 0.69 0.43 0.99 s0.48666 0.54666 0.84 0.74 s0.79668 0.29 1.33 0.29 c0.57334 0 1.05 -0.07666 1.43 -0.23 s0.68334 -0.36334 0.91 -0.63 s0.39 -0.58332 0.49 -0.94998 s0.15 -0.76332 0.15 -1.19 l0 -7.42 z M140.64000000000001 20.18 c-0.65334 0 -1.2335 -0.086738 -1.7401 -0.26008 s-0.93332 -0.45 -1.28 -0.83 s-0.60332 -0.87666 -0.76998 -1.49 s-0.23666 -1.3533 -0.21 -2.22 l1.2 0 c0 0.42666 0.02 0.87 0.06 1.33 s0.14666 0.88 0.32 1.26 s0.43668 0.69 0.79002 0.93 s0.84334 0.36 1.47 0.36 c0.53334 0 0.98668 -0.08 1.36 -0.24 s0.67668 -0.37334 0.91002 -0.64 s0.39668 -0.58 0.49002 -0.94 s0.14 -0.73334 0.14 -1.12 c0 -0.45334 -0.08334 -0.85 -0.25 -1.19 s-0.38666 -0.64334 -0.66 -0.91 s-0.59334 -0.50332 -0.96 -0.70998 s-0.75 -0.39 -1.15 -0.55 c-0.64 -0.25334 -1.2 -0.50334 -1.68 -0.75 s-0.87334 -0.52332 -1.18 -0.82998 s-0.53666 -0.66332 -0.69 -1.07 s-0.23 -0.90332 -0.23 -1.49 c0 -1.3333 0.35 -2.3266 1.05 -2.98 s1.7033 -0.98 3.01 -0.98 c1.1333 0 2.03 0.33 2.69 0.99 s0.99 1.65 0.99 2.97 l0 1.1 l-1.12 0 l0 -1.2 c0 -0.41334 -0.05 -0.79668 -0.15 -1.15 s-0.25666 -0.66334 -0.47 -0.93 s-0.48334 -0.47666 -0.81 -0.63 s-0.71666 -0.23 -1.17 -0.23 c-1.0667 0 -1.83 0.28 -2.29 0.84 s-0.67 1.3133 -0.63 2.26 c0.01334 0.41334 0.09 0.76668 0.23 1.06 s0.32666 0.55 0.56 0.77 s0.51334 0.41666 0.84 0.59 s0.69 0.34668 1.09 0.52002 c0.46666 0.2 0.93 0.41334 1.39 0.64 s0.89 0.50666 1.29 0.84 c0.4 0.34666 0.73 0.75 0.99 1.21 s0.39 1.03 0.39 1.71 c0 1.32 -0.33666 2.31 -1.01 2.97 s-1.61 0.99 -2.81 0.99 z M145.70000000000002 20 l0 -15 l7.36 0 l0 1.16 l-6.32 0 l0 5.7 l6.26 0 l0 0.92 l-6.26 0 l0 6.06 l6.46 0 l0 1.16 l-7.5 0 z"></path></g>
			</g>
		</svg>