<?xml version="1.0" encoding="UTF-8" standalone="no"?>
<!DOCTYPE svg PUBLIC "-//W3C//DTD SVG 1.1//EN" "http://www.w3.org/Graphics/SVG/1.1/DTD/svg11.dtd">
<svg width="2048px" height="1024px" version="1.1" xmlns="http://www.w3.org/2000/svg" xmlns:xlink="http://www.w3.org/1999/xlink" xml:space="preserve" xmlns:serif="http://www.serif.com/" style="fill-rule:evenodd;clip-rule:evenodd;stroke-linejoin:round;stroke-miterlimit:2;">
    <g>
        <g transform="matrix(3.4404,0,0,3.24444,-445.315,-69.633)">
            <path d="M281.954,181.06C262.446,197.474 233.327,194.966 216.913,175.46C200.498,155.952 203.004,126.833 222.51,110.418C242.018,94.004 271.135,96.509 287.555,116.018C303.967,135.523 301.459,164.644 281.954,181.06ZM315.918,62.187L301.768,74.094C295.657,69.864 289.102,66.486 282.278,63.985L283.862,45.556C284.278,40.734 280.707,36.491 275.885,36.075L247.666,33.647C242.844,33.232 238.602,36.802 238.184,41.624L236.598,60.054C229.448,61.352 222.411,63.56 215.668,66.684L203.762,52.533C200.645,48.83 195.118,48.354 191.417,51.471L169.747,69.707C166.04,72.822 165.565,78.35 168.683,82.053L180.591,96.203C176.36,102.313 172.981,108.867 170.479,115.691L152.052,114.105C147.231,113.691 142.983,117.264 142.571,122.084L140.142,150.301C139.724,155.125 143.298,159.371 148.122,159.783L166.548,161.371C167.845,168.522 170.054,175.559 173.177,182.302L159.024,194.21C155.323,197.325 154.849,202.854 157.964,206.554L176.198,228.224C179.315,231.93 184.843,232.407 188.548,229.289L202.696,217.382C208.807,221.612 215.362,224.991 222.186,227.491L220.6,245.919C220.184,250.74 223.758,254.986 228.579,255.398L256.795,257.828C261.62,258.244 265.864,254.673 266.28,249.847L267.866,231.425C275.018,230.126 282.053,227.919 288.799,224.794L300.706,238.943C303.821,242.648 309.346,243.123 313.051,240.004L334.721,221.771C338.422,218.655 338.901,213.13 335.784,209.426L323.877,195.274C328.108,189.164 331.485,182.609 333.987,175.783L352.415,177.369C357.235,177.785 361.479,174.214 361.893,169.391L364.323,141.172C364.739,136.352 361.166,132.107 356.346,131.692L337.918,130.105C336.62,122.953 334.411,115.917 331.288,109.174L345.438,97.266C349.141,94.15 349.616,88.625 346.499,84.921L328.264,63.251C325.147,59.547 319.622,59.071 315.918,62.187Z" style="fill:rgb(96,93,94);fill-rule:nonzero;"/>
        </g>
        <g transform="matrix(3.4404,0,0,3.24444,-383.862,436.491)">
            <path d="M435.202,87.112C439.788,101.022 432.229,116.016 418.319,120.6C404.409,125.185 389.414,117.626 384.829,103.715C380.243,89.804 387.803,74.812 401.713,70.227C415.626,65.643 430.618,73.203 435.202,87.112ZM446.067,41.989L431.538,34.664C429.055,33.412 426.028,34.408 424.776,36.893L419.985,46.392C415.897,45.557 411.676,45.226 407.415,45.451L404.086,35.35C403.219,32.71 400.37,31.275 397.731,32.146L382.278,37.24C379.637,38.11 378.2,40.957 379.073,43.597L382.401,53.695C378.84,56.049 375.645,58.822 372.854,61.926L363.354,57.135C360.872,55.884 357.842,56.882 356.592,59.365L349.266,73.895C348.014,76.378 349.012,79.405 351.495,80.656L360.993,85.444C360.157,89.534 359.827,93.753 360.051,98.015L349.954,101.343C347.311,102.214 345.877,105.06 346.749,107.7L351.842,123.154C352.713,125.795 355.557,127.23 358.198,126.36L368.297,123.031C370.651,126.59 373.424,129.787 376.528,132.578L371.739,142.078C370.487,144.561 371.485,147.587 373.969,148.84L388.495,156.164C390.979,157.417 394.006,156.418 395.258,153.938L400.049,144.436C404.139,145.272 408.358,145.602 412.62,145.377L415.95,155.475C416.819,158.115 419.663,159.552 422.303,158.681L437.758,153.588C440.397,152.717 441.833,149.872 440.963,147.232L437.635,137.131C441.194,134.778 444.389,132.004 447.18,128.901L456.682,133.692C459.163,134.942 462.19,133.945 463.442,131.461L470.768,116.935C472.02,114.45 471.022,111.425 468.54,110.172L459.038,105.382C459.872,101.292 460.204,97.075 459.979,92.814L470.081,89.484C472.721,88.615 474.155,85.768 473.286,83.129L468.19,67.674C467.321,65.033 464.475,63.597 461.834,64.471L451.735,67.798C449.381,64.237 446.608,61.042 443.504,58.25L448.295,48.75C449.547,46.268 448.547,43.24 446.067,41.989Z" style="fill:rgb(96,93,94);fill-rule:nonzero;"/>
        </g>
        <g transform="matrix(3.4404,0,0,3.24444,-0.0034404,-170.483)">
            <path d="M289.258,279.58L289.258,142.467C289.258,135.934 283.965,130.636 277.43,130.636L79.991,130.636C73.458,130.636 68.163,135.934 68.163,142.467L68.163,279.58L289.258,279.58Z" style="fill:rgb(34,31,31);fill-rule:nonzero;"/>
        </g>
        <g transform="matrix(3.4404,0,0,3.24444,-0.0034404,-170.483)">
            <path d="M306.893,287.648L50.53,287.648C45.21,287.648 44.391,280.609 44.391,280.609L313.028,280.609C313.028,280.609 312.211,287.648 306.893,287.648Z" style="fill:rgb(188,190,192);fill-rule:nonzero;"/>
        </g>
        <g transform="matrix(3.4404,0,0,3.24444,-0.0034404,-170.483)">
            <rect x="44.393" y="277.859" width="268.635" height="3.949" style="fill:rgb(231,231,232);fill-rule:nonzero;"/>
        </g>
        <g transform="matrix(3.4404,0,0,3.24444,-0.0034404,-170.483)">
            <rect x="152.788" y="277.859" width="51.845" height="2.24" style="fill:rgb(188,190,192);fill-rule:nonzero;"/>
        </g>
        <g transform="matrix(3.4404,0,0,3.24444,-0.0034404,-170.483)">
            <rect x="76.807" y="141.812" width="203.807" height="128.794" style="fill:rgb(242,244,244);fill-rule:nonzero;"/>
        </g>
        <g transform="matrix(3.4404,0,0,3.24444,-0.0034404,-170.483)">
            <rect x="86.053" y="147.908" width="54.598" height="12.003" style="fill:rgb(146,79,150);fill-rule:nonzero;"/>
        </g>
        <g transform="matrix(3.4404,0,0,3.24444,-0.0034404,-170.483)">
            <rect x="150.747" y="147.908" width="119.291" height="12.003" style="fill:rgb(188,190,192);fill-rule:nonzero;"/>
        </g>
        <g transform="matrix(3.4404,0,0,3.24444,-0.0034404,-170.483)">
            <path d="M270.038,198.453L86.055,198.453L86.055,165.384L270.038,165.384L270.038,198.453Z" style="fill:rgb(98,225,234);fill-rule:nonzero;"/>
        </g>
        <g transform="matrix(3.4404,0,0,3.24444,-0.0034404,-170.483)">
            <rect x="86.055" y="205.107" width="54.596" height="33.46" style="fill:rgb(248,149,32);fill-rule:nonzero;"/>
        </g>
        <g transform="matrix(3.4404,0,0,3.24444,-0.0034404,-170.483)">
            <rect x="150.747" y="205.108" width="54.597" height="33.459" style="fill:rgb(242,104,78);fill-rule:nonzero;"/>
        </g>
        <g transform="matrix(3.4404,0,0,3.24444,-0.0034404,-170.483)">
            <rect x="215.442" y="205.108" width="54.596" height="33.459" style="fill:rgb(141,199,65);fill-rule:nonzero;"/>
        </g>
        <g transform="matrix(3.4404,0,0,3.24444,-0.0034404,-170.483)">
            <rect x="86.055" y="243.662" width="54.596" height="4.753" style="fill:rgb(148,150,152);fill-rule:nonzero;"/>
        </g>
        <g transform="matrix(3.4404,0,0,3.24444,-0.0034404,-170.483)">
            <rect x="86.055" y="252.066" width="54.596" height="4.754" style="fill:rgb(188,190,192);fill-rule:nonzero;"/>
        </g>
        <g transform="matrix(3.4404,0,0,3.24444,-0.0034404,-170.483)">
            <rect x="86.055" y="260.471" width="54.596" height="4.753" style="fill:rgb(188,190,192);fill-rule:nonzero;"/>
        </g>
        <g transform="matrix(3.4404,0,0,3.24444,-0.0034404,-170.483)">
            <rect x="150.747" y="243.662" width="54.597" height="4.753" style="fill:rgb(148,150,152);fill-rule:nonzero;"/>
        </g>
        <g transform="matrix(3.4404,0,0,3.24444,-0.0034404,-170.483)">
            <rect x="150.747" y="252.066" width="54.597" height="4.754" style="fill:rgb(188,190,192);fill-rule:nonzero;"/>
        </g>
        <g transform="matrix(3.4404,0,0,3.24444,-0.0034404,-170.483)">
            <rect x="150.747" y="260.471" width="54.597" height="4.753" style="fill:rgb(188,190,192);fill-rule:nonzero;"/>
        </g>
        <g transform="matrix(3.4404,0,0,3.24444,-0.0034404,-170.483)">
            <rect x="215.442" y="243.662" width="54.596" height="4.753" style="fill:rgb(148,150,152);fill-rule:nonzero;"/>
        </g>
        <g transform="matrix(3.4404,0,0,3.24444,-0.0034404,-170.483)">
            <rect x="215.442" y="252.066" width="54.596" height="4.754" style="fill:rgb(188,190,192);fill-rule:nonzero;"/>
        </g>
        <g transform="matrix(3.4404,0,0,3.24444,-0.0034404,-170.483)">
            <rect x="215.442" y="260.471" width="54.596" height="4.753" style="fill:rgb(188,190,192);fill-rule:nonzero;"/>
        </g>
        <g transform="matrix(3.4404,0,0,3.24444,-0.0034404,-170.483)">
            <path d="M289.332,277.382L289.258,277.382L289.258,225.339L289.332,225.428L289.332,277.382ZM289.258,173.324L289.258,142.467C289.258,135.934 283.965,130.636 277.43,130.636L277.506,130.636C284.039,130.636 289.332,135.934 289.332,142.467L289.332,173.224C289.308,173.257 289.283,173.29 289.258,173.324Z" style="fill:rgb(230,153,120);fill-rule:nonzero;"/>
        </g>
        <g transform="matrix(3.4404,0,0,3.24444,-0.0034404,-170.483)">
            <path d="M289.332,225.428L289.258,225.339L289.258,173.324C289.283,173.29 289.308,173.257 289.332,173.224L289.332,225.428Z" style="fill:rgb(241,168,126);fill-rule:nonzero;"/>
        </g>
        <g transform="matrix(3.4404,0,0,3.24444,-0.0034404,-170.483)">
            <path d="M289.258,277.382L230.137,277.382L226.047,270.606L280.614,270.606L280.614,141.812L148.295,141.812L141.548,130.636L277.43,130.636C283.965,130.636 289.258,135.934 289.258,142.467L289.258,277.382Z" style="fill:rgb(55,52,52);fill-rule:nonzero;"/>
        </g>
        <g transform="matrix(3.4404,0,0,3.24444,-0.0034404,-170.483)">
            <path d="M280.614,270.606L226.047,270.606L222.798,265.224L270.038,265.224L270.038,260.471L219.928,260.471L217.724,256.82L270.038,256.82L270.038,252.066L215.442,252.066L215.442,253.04L205.344,236.313L205.344,205.108L186.506,205.108L182.488,198.453L270.038,198.453L270.038,165.384L162.525,165.384L159.221,159.911L270.038,159.911L270.038,147.908L151.975,147.908L148.295,141.812L280.614,141.812L280.614,270.606ZM215.442,243.662L215.442,248.415L270.038,248.415L270.038,243.662L215.442,243.662ZM215.442,205.108L215.442,238.567L270.038,238.567L270.038,205.108L215.442,205.108Z" style="fill:rgb(248,248,249);fill-rule:nonzero;"/>
        </g>
        <g transform="matrix(3.4404,0,0,3.24444,-0.0034404,-170.483)">
            <path d="M270.038,159.911L159.221,159.911L151.975,147.908L270.038,147.908L270.038,159.911Z" style="fill:rgb(209,210,211);fill-rule:nonzero;"/>
        </g>
        <g transform="matrix(3.4404,0,0,3.24444,-0.0034404,-170.483)">
            <path d="M270.038,198.453L182.488,198.453L162.525,165.384L270.038,165.384L270.038,198.453Z" style="fill:rgb(106,197,236);fill-rule:nonzero;"/>
        </g>
        <g transform="matrix(3.4404,0,0,3.24444,-0.0034404,-170.483)">
            <path d="M205.344,236.313L186.506,205.108L205.344,205.108L205.344,236.313Z" style="fill:rgb(224,122,123);fill-rule:nonzero;"/>
        </g>
        <g transform="matrix(3.4404,0,0,3.24444,-0.0034404,-170.483)">
            <rect x="215.442" y="205.108" width="54.596" height="33.459" style="fill:rgb(87,190,145);fill-rule:nonzero;"/>
        </g>
        <g transform="matrix(3.4404,0,0,3.24444,-0.0034404,-170.483)">
            <rect x="215.442" y="243.662" width="54.596" height="4.753" style="fill:rgb(180,182,183);fill-rule:nonzero;"/>
        </g>
        <g transform="matrix(3.4404,0,0,3.24444,-0.0034404,-170.483)">
            <path d="M270.038,256.82L217.724,256.82L215.442,253.04L215.442,252.066L270.038,252.066L270.038,256.82Z" style="fill:rgb(209,210,211);fill-rule:nonzero;"/>
        </g>
        <g transform="matrix(3.4404,0,0,3.24444,-0.0034404,-170.483)">
            <path d="M270.038,265.224L222.798,265.224L219.928,260.471L270.038,260.471L270.038,265.224Z" style="fill:rgb(209,210,211);fill-rule:nonzero;"/>
        </g>
        <g transform="matrix(3.4404,0,0,3.24444,-0.0034404,-170.483)">
            <path d="M337.475,288.374C333.819,288.374 330.856,285.411 330.856,281.756L330.856,148.487C330.856,144.832 333.819,141.869 337.475,141.869L426.604,141.869C430.26,141.869 433.223,144.832 433.223,148.487L433.223,281.756C433.223,285.411 430.26,288.374 426.604,288.374L337.475,288.374Z" style="fill:rgb(34,31,31);fill-rule:nonzero;"/>
        </g>
        <g transform="matrix(3.4404,0,0,3.24444,-0.0034404,-170.483)">
            <rect x="337.833" y="156.124" width="88.416" height="117.995" style="fill:rgb(242,244,244);fill-rule:nonzero;"/>
        </g>
        <g transform="matrix(3.4404,0,0,3.24444,-0.0034404,-170.483)">
            <path d="M388.94,281.624C388.94,282.963 387.854,284.047 386.514,284.047L378.891,284.047C377.551,284.047 376.467,282.963 376.467,281.624C376.467,280.283 377.551,279.199 378.891,279.199L386.514,279.199C387.854,279.199 388.94,280.283 388.94,281.624Z" style="fill:rgb(65,64,66);fill-rule:nonzero;"/>
        </g>
        <g transform="matrix(3.4404,0,0,3.24444,-0.0034404,-170.483)">
            <rect x="342.504" y="162.634" width="27.368" height="11.642" style="fill:rgb(146,79,150);fill-rule:nonzero;"/>
        </g>
        <g transform="matrix(3.4404,0,0,3.24444,-0.0034404,-170.483)">
            <rect x="374.713" y="162.634" width="46.832" height="11.642" style="fill:rgb(188,190,192);fill-rule:nonzero;"/>
        </g>
        <g transform="matrix(3.4404,0,0,3.24444,-0.0034404,-170.483)">
            <rect x="342.504" y="180.54" width="79.041" height="32.716" style="fill:rgb(98,225,234);fill-rule:nonzero;"/>
        </g>
        <g transform="matrix(3.4404,0,0,3.24444,-0.0034404,-170.483)">
            <rect x="342.504" y="219.501" width="35.952" height="22.034" style="fill:rgb(248,149,32);fill-rule:nonzero;"/>
        </g>
        <g transform="matrix(3.4404,0,0,3.24444,-0.0034404,-170.483)">
            <rect x="385.104" y="219.501" width="35.951" height="22.034" style="fill:rgb(242,104,78);fill-rule:nonzero;"/>
        </g>
        <g transform="matrix(3.4404,0,0,3.24444,-0.0034404,-170.483)">
            <rect x="342.504" y="246.927" width="35.952" height="3.129" style="fill:rgb(148,150,152);fill-rule:nonzero;"/>
        </g>
        <g transform="matrix(3.4404,0,0,3.24444,-0.0034404,-170.483)">
            <rect x="342.504" y="253.312" width="35.952" height="3.129" style="fill:rgb(188,190,192);fill-rule:nonzero;"/>
        </g>
        <g transform="matrix(3.4404,0,0,3.24444,-0.0034404,-170.483)">
            <rect x="342.504" y="259.695" width="35.952" height="3.129" style="fill:rgb(188,190,192);fill-rule:nonzero;"/>
        </g>
        <g transform="matrix(3.4404,0,0,3.24444,-0.0034404,-170.483)">
            <rect x="342.504" y="266.08" width="35.952" height="3.13" style="fill:rgb(188,190,192);fill-rule:nonzero;"/>
        </g>
        <g transform="matrix(3.4404,0,0,3.24444,-0.0034404,-170.483)">
            <rect x="385.104" y="246.927" width="35.951" height="3.129" style="fill:rgb(148,150,152);fill-rule:nonzero;"/>
        </g>
        <g transform="matrix(3.4404,0,0,3.24444,-0.0034404,-170.483)">
            <rect x="385.104" y="253.312" width="35.951" height="3.129" style="fill:rgb(188,190,192);fill-rule:nonzero;"/>
        </g>
        <g transform="matrix(3.4404,0,0,3.24444,-0.0034404,-170.483)">
            <rect x="385.104" y="259.695" width="35.951" height="3.129" style="fill:rgb(188,190,192);fill-rule:nonzero;"/>
        </g>
        <g transform="matrix(3.4404,0,0,3.24444,-0.0034404,-170.483)">
            <rect x="385.104" y="266.081" width="35.951" height="3.129" style="fill:rgb(188,190,192);fill-rule:nonzero;"/>
        </g>
        <g transform="matrix(3.4404,0,0,3.24444,-0.0034404,-170.483)">
            <path d="M430.168,287.334C432.005,286.158 433.223,284.099 433.223,281.756L433.223,155.083L433.225,155.082L433.225,281.755C433.225,284.099 432.006,286.158 430.168,287.334ZM371.844,141.869L364.263,141.869L364.263,141.868L371.844,141.868L371.844,141.869Z" style="fill:rgb(230,153,120);fill-rule:nonzero;"/>
        </g>
        <g transform="matrix(3.4404,0,0,3.24444,-0.0034404,-170.483)">
            <path d="M336.876,141.896C337.073,141.878 337.273,141.868 337.475,141.868L364.263,141.868L364.263,141.869L337.475,141.869C337.273,141.869 337.073,141.878 336.876,141.896Z" style="fill:rgb(241,168,126);fill-rule:nonzero;"/>
        </g>
        <g transform="matrix(3.4404,0,0,3.24444,-0.0034404,-170.483)">
            <path d="M433.223,155.083L433.223,148.487C433.223,144.832 430.26,141.869 426.604,141.869L371.844,141.869L371.844,141.868L426.604,141.868C430.26,141.868 433.225,144.832 433.225,148.487L433.225,155.082L433.223,155.083Z" style="fill:rgb(241,168,126);fill-rule:nonzero;"/>
        </g>
        <g transform="matrix(3.4404,0,0,3.24444,-0.0034404,-170.483)">
            <path d="M426.604,288.373L423.352,288.373L414.747,274.119L426.249,274.119L426.249,156.124L343.513,156.124L335.163,142.292C335.705,142.089 336.278,141.952 336.876,141.896C337.073,141.878 337.273,141.869 337.475,141.869L426.604,141.869C430.26,141.869 433.223,144.832 433.223,148.487L433.223,281.756C433.223,284.099 432.005,286.158 430.168,287.334C429.139,287.992 427.916,288.373 426.604,288.373Z" style="fill:rgb(55,52,52);fill-rule:nonzero;"/>
        </g>
        <g transform="matrix(3.4404,0,0,3.24444,-0.0034404,-170.483)">
            <path d="M426.249,274.119L414.747,274.119L411.783,269.21L421.055,269.21L421.055,266.081L409.894,266.081L407.928,262.824L421.055,262.824L421.055,259.695L406.039,259.695L404.074,256.441L421.055,256.441L421.055,253.312L402.185,253.312L400.22,250.056L421.055,250.056L421.055,246.927L398.331,246.927L395.076,241.535L421.055,241.535L421.055,219.501L385.104,219.501L385.104,225.017L378.004,213.256L421.545,213.256L421.545,180.54L358.253,180.54L354.471,174.276L369.872,174.276L369.872,162.634L347.443,162.634L343.513,156.124L426.249,156.124L426.249,274.119ZM374.713,162.634L374.713,174.276L421.545,174.276L421.545,162.634L374.713,162.634Z" style="fill:rgb(248,248,249);fill-rule:nonzero;"/>
        </g>
        <g transform="matrix(3.4404,0,0,3.24444,-0.0034404,-170.483)">
            <path d="M369.872,174.276L354.471,174.276L347.443,162.634L369.872,162.634L369.872,174.276Z" style="fill:rgb(178,132,182);fill-rule:nonzero;"/>
        </g>
        <g transform="matrix(3.4404,0,0,3.24444,-0.0034404,-170.483)">
            <rect x="374.713" y="162.634" width="46.832" height="11.642" style="fill:rgb(209,210,211);fill-rule:nonzero;"/>
        </g>
        <g transform="matrix(3.4404,0,0,3.24444,-0.0034404,-170.483)">
            <path d="M421.545,213.256L378.004,213.256L358.253,180.54L421.545,180.54L421.545,213.256Z" style="fill:rgb(106,197,236);fill-rule:nonzero;"/>
        </g>
        <g transform="matrix(3.4404,0,0,3.24444,-0.0034404,-170.483)">
            <path d="M421.055,241.535L395.076,241.535L385.104,225.017L385.104,219.501L421.055,219.501L421.055,241.535Z" style="fill:rgb(224,122,123);fill-rule:nonzero;"/>
        </g>
        <g transform="matrix(3.4404,0,0,3.24444,-0.0034404,-170.483)">
            <path d="M421.055,250.056L400.22,250.056L398.331,246.927L421.055,246.927L421.055,250.056Z" style="fill:rgb(180,182,183);fill-rule:nonzero;"/>
        </g>
        <g transform="matrix(3.4404,0,0,3.24444,-0.0034404,-170.483)">
            <path d="M421.055,256.441L404.074,256.441L402.185,253.312L421.055,253.312L421.055,256.441Z" style="fill:rgb(209,210,211);fill-rule:nonzero;"/>
        </g>
        <g transform="matrix(3.4404,0,0,3.24444,-0.0034404,-170.483)">
            <path d="M421.055,262.824L407.928,262.824L406.039,259.695L421.055,259.695L421.055,262.824Z" style="fill:rgb(209,210,211);fill-rule:nonzero;"/>
        </g>
        <g transform="matrix(3.4404,0,0,3.24444,-0.0034404,-170.483)">
            <path d="M421.055,269.21L411.783,269.21L409.894,266.081L421.055,266.081L421.055,269.21Z" style="fill:rgb(209,210,211);fill-rule:nonzero;"/>
        </g>
        <g transform="matrix(3.4404,0,0,3.24444,-0.0034404,-170.483)">
            <path d="M533.135,282.78C533.135,286.185 530.375,288.945 526.971,288.945L476.75,288.945C473.344,288.945 470.586,286.185 470.586,282.78L470.586,186.745C470.586,183.342 473.344,180.581 476.75,180.581L526.971,180.581C530.375,180.581 533.135,183.342 533.135,186.745L533.135,282.78Z" style="fill:rgb(34,31,31);fill-rule:nonzero;"/>
        </g>
        <g transform="matrix(3.4404,0,0,3.24444,-0.0034404,-170.483)">
            <rect x="474.438" y="194.203" width="54.846" height="79.543" style="fill:rgb(242,244,244);fill-rule:nonzero;"/>
        </g>
        <g transform="matrix(3.4404,0,0,3.24444,-0.0034404,-170.483)">
            <path d="M504.165,188.117C504.165,189.39 503.133,190.419 501.862,190.419C500.59,190.419 499.557,189.39 499.557,188.117C499.557,186.845 500.59,185.813 501.862,185.813C503.133,185.813 504.165,186.845 504.165,188.117Z" style="fill:rgb(65,64,66);fill-rule:nonzero;"/>
        </g>
        <g transform="matrix(3.4404,0,0,3.24444,-0.0034404,-170.483)">
            <path d="M508.383,281.422C508.383,282.823 507.247,283.957 505.846,283.957L497.874,283.957C496.473,283.957 495.338,282.823 495.338,281.422C495.338,280.02 496.473,278.885 497.874,278.885L505.846,278.885C507.247,278.885 508.383,280.02 508.383,281.422Z" style="fill:rgb(65,64,66);fill-rule:nonzero;"/>
        </g>
        <g transform="matrix(3.4404,0,0,3.24444,-0.0034404,-170.483)">
            <rect x="477.196" y="196.731" width="49.488" height="7.992" style="fill:rgb(146,79,150);fill-rule:nonzero;"/>
        </g>
        <g transform="matrix(3.4404,0,0,3.24444,-0.0034404,-170.483)">
            <rect x="477.196" y="207.404" width="49.486" height="8.849" style="fill:rgb(188,190,192);fill-rule:nonzero;"/>
        </g>
        <g transform="matrix(3.4404,0,0,3.24444,-0.0034404,-170.483)">
            <rect x="477.196" y="219.522" width="49.488" height="19.97" style="fill:rgb(98,225,234);fill-rule:nonzero;"/>
        </g>
        <g transform="matrix(3.4404,0,0,3.24444,-0.0034404,-170.483)">
            <rect x="477.196" y="242.658" width="49.486" height="27.588" style="fill:rgb(248,149,32);fill-rule:nonzero;"/>
        </g>
        <g transform="matrix(3.4404,0,0,3.24444,-0.0034404,-170.483)">
            <path d="M471.084,184.314L470.963,184.114C471.95,182.027 474.069,180.581 476.53,180.581L476.75,180.581C474.208,180.581 472.027,182.119 471.084,184.314Z" style="fill:rgb(230,153,120);fill-rule:nonzero;"/>
        </g>
        <g transform="matrix(3.4404,0,0,3.24444,-0.0034404,-170.483)">
            <path d="M532.229,285.6L525.073,273.746L529.284,273.746L529.284,194.203L477.054,194.203L471.084,184.314C472.027,182.119 474.208,180.581 476.75,180.581L526.75,180.581C530.157,180.581 532.916,183.342 532.916,186.745L532.916,282.78C532.916,283.798 532.664,284.754 532.229,285.6ZM501.862,185.813C500.59,185.813 499.557,186.845 499.557,188.117C499.557,189.39 500.59,190.419 501.862,190.419C503.133,190.419 504.165,189.39 504.165,188.117C504.165,186.845 503.133,185.813 501.862,185.813Z" style="fill:rgb(55,52,52);fill-rule:nonzero;"/>
        </g>
        <g transform="matrix(3.4404,0,0,3.24444,-0.0034404,-170.483)">
            <path d="M529.284,273.746L525.073,273.746L522.96,270.246L526.682,270.246L526.682,242.658L506.305,242.658L504.394,239.492L526.684,239.492L526.684,219.522L492.338,219.522L490.365,216.253L526.682,216.253L526.682,207.404L485.023,207.404L483.405,204.723L526.684,204.723L526.684,196.731L478.58,196.731L477.054,194.203L529.284,194.203L529.284,273.746Z" style="fill:rgb(248,248,249);fill-rule:nonzero;"/>
        </g>
        <g transform="matrix(3.4404,0,0,3.24444,-0.0034404,-170.483)">
            <path d="M501.862,190.419C500.59,190.419 499.557,189.39 499.557,188.117C499.557,186.845 500.59,185.813 501.862,185.813C503.133,185.813 504.165,186.845 504.165,188.117C504.165,189.39 503.133,190.419 501.862,190.419Z" style="fill:rgb(123,122,124);fill-rule:nonzero;"/>
        </g>
        <g transform="matrix(3.4404,0,0,3.24444,-0.0034404,-170.483)">
            <path d="M526.684,204.723L483.405,204.723L478.58,196.731L526.684,196.731L526.684,204.723Z" style="fill:rgb(178,132,182);fill-rule:nonzero;"/>
        </g>
        <g transform="matrix(3.4404,0,0,3.24444,-0.0034404,-170.483)">
            <path d="M526.682,216.253L490.365,216.253L485.023,207.404L526.682,207.404L526.682,216.253Z" style="fill:rgb(209,210,211);fill-rule:nonzero;"/>
        </g>
        <g transform="matrix(3.4404,0,0,3.24444,-0.0034404,-170.483)">
            <path d="M526.684,239.492L504.394,239.492L492.338,219.522L526.684,219.522L526.684,239.492Z" style="fill:rgb(106,197,236);fill-rule:nonzero;"/>
        </g>
        <g transform="matrix(3.4404,0,0,3.24444,-0.0034404,-170.483)">
            <path d="M526.682,270.246L522.96,270.246L506.305,242.658L526.682,242.658L526.682,270.246Z" style="fill:rgb(250,181,99);fill-rule:nonzero;"/>
        </g>
        <g transform="matrix(3.4404,0,0,2.65501,-0.0034404,-96.1352)">
            <path d="M187.388,111.38C188.177,110.68 188.97,109.982 189.766,109.287C190.279,108.839 190.332,108.06 189.884,107.547C189.436,107.034 188.657,106.981 188.144,107.429C187.342,108.128 186.544,108.831 185.75,109.535C185.241,109.987 185.194,110.767 185.646,111.276C186.099,111.786 186.878,111.832 187.388,111.38ZM196.318,103.726C197.13,103.057 197.949,102.392 198.772,101.732C199.303,101.306 199.388,100.529 198.962,99.998C198.537,99.467 197.76,99.382 197.229,99.808C196.397,100.474 195.571,101.146 194.75,101.821C194.224,102.254 194.148,103.031 194.581,103.557C195.013,104.083 195.791,104.158 196.317,103.726L196.318,103.726ZM205.57,96.502C206.416,95.88 207.267,95.264 208.126,94.654C208.681,94.26 208.812,93.49 208.418,92.935C208.024,92.379 207.253,92.248 206.699,92.642C205.829,93.26 204.964,93.885 204.108,94.516C203.559,94.919 203.441,95.691 203.844,96.239C204.248,96.788 205.02,96.906 205.569,96.502L205.57,96.502ZM215.233,89.883C216.12,89.322 217.014,88.769 217.917,88.224C218.5,87.873 218.687,87.115 218.335,86.531C217.984,85.948 217.226,85.761 216.643,86.112C215.724,86.666 214.815,87.228 213.914,87.799C213.337,88.163 213.167,88.926 213.531,89.501C213.896,90.077 214.658,90.248 215.234,89.883L215.233,89.883ZM225.372,84.031C226.3,83.547 227.237,83.073 228.183,82.608C228.794,82.308 229.046,81.57 228.747,80.958C228.447,80.347 227.708,80.094 227.097,80.394C226.131,80.867 225.177,81.351 224.231,81.844C223.626,82.159 223.392,82.904 223.708,83.508C224.022,84.112 224.767,84.346 225.372,84.031ZM235.977,79.107C236.944,78.712 237.92,78.328 238.908,77.955C239.544,77.714 239.866,77.002 239.625,76.365C239.383,75.727 238.671,75.406 238.035,75.647C237.028,76.028 236.032,76.42 235.044,76.823C234.414,77.081 234.111,77.801 234.369,78.432C234.626,79.062 235.347,79.364 235.978,79.107L235.977,79.107ZM246.999,75.222C247.998,74.923 249.007,74.637 250.027,74.362C250.684,74.184 251.074,73.507 250.896,72.85C250.718,72.192 250.042,71.803 249.384,71.98C248.343,72.261 247.314,72.554 246.293,72.858C245.64,73.053 245.269,73.74 245.463,74.392C245.659,75.045 246.345,75.416 246.999,75.222ZM258.346,72.431C259.37,72.231 260.402,72.043 261.445,71.867C262.116,71.753 262.569,71.117 262.456,70.446C262.342,69.774 261.706,69.321 261.035,69.435C259.97,69.614 258.917,69.806 257.875,70.01C257.206,70.14 256.769,70.788 256.9,71.457C257.031,72.125 257.678,72.561 258.346,72.431ZM269.915,70.727C270.952,70.622 271.998,70.529 273.054,70.447C273.733,70.394 274.241,69.801 274.188,69.122C274.135,68.443 273.542,67.935 272.863,67.988C271.789,68.071 270.722,68.166 269.667,68.273C268.989,68.341 268.495,68.946 268.563,69.624C268.631,70.302 269.237,70.795 269.915,70.727ZM281.598,70.051C282.4,70.037 283.207,70.031 284.02,70.031C284.264,70.031 284.508,70.031 284.753,70.033C285.434,70.036 285.99,69.487 285.993,68.806C285.997,68.125 285.448,67.57 284.767,67.566C284.516,67.565 284.268,67.564 284.02,67.564C283.194,67.564 282.373,67.571 281.558,67.584C280.876,67.595 280.333,68.156 280.344,68.837C280.355,69.518 280.916,70.061 281.597,70.051L281.598,70.051ZM293.278,70.341C294.315,70.426 295.353,70.532 296.391,70.66C297.067,70.743 297.682,70.263 297.765,69.587C297.848,68.911 297.368,68.295 296.692,68.212C295.622,68.08 294.549,67.97 293.478,67.883C292.798,67.827 292.204,68.333 292.148,69.011C292.092,69.69 292.597,70.286 293.277,70.341L293.278,70.341ZM304.762,72.141C305.779,72.374 306.794,72.626 307.809,72.896C308.467,73.072 309.142,72.68 309.318,72.022C309.493,71.364 309.102,70.688 308.444,70.513C307.402,70.235 306.359,69.977 305.314,69.737C304.65,69.584 303.988,69.999 303.835,70.663C303.682,71.327 304.097,71.989 304.761,72.141L304.762,72.141ZM315.943,75.449C316.926,75.803 317.908,76.174 318.887,76.559C319.521,76.808 320.237,76.496 320.486,75.863C320.735,75.229 320.423,74.513 319.79,74.264C318.79,73.87 317.786,73.491 316.78,73.128C316.138,72.897 315.431,73.229 315.2,73.869C314.968,74.51 315.3,75.217 315.942,75.449L315.943,75.449ZM326.711,79.976C327.655,80.428 328.594,80.893 329.531,81.37C330.137,81.679 330.879,81.438 331.189,80.831C331.498,80.224 331.256,79.482 330.65,79.173C329.697,78.687 328.74,78.213 327.778,77.752C327.164,77.457 326.426,77.717 326.132,78.331C325.837,78.945 326.097,79.682 326.711,79.976ZM337.029,85.492C337.933,86.025 338.833,86.568 339.728,87.122C340.307,87.48 341.067,87.3 341.425,86.721C341.783,86.142 341.604,85.382 341.025,85.023C340.116,84.461 339.201,83.909 338.281,83.367C337.694,83.021 336.938,83.216 336.592,83.803C336.247,84.39 336.442,85.146 337.029,85.492ZM346.892,91.824C347.757,92.426 348.618,93.036 349.471,93.653C350.023,94.052 350.793,93.928 351.193,93.376C351.592,92.824 351.468,92.053 350.917,91.654C350.05,91.028 349.178,90.409 348.299,89.799C347.74,89.41 346.971,89.548 346.582,90.108C346.193,90.667 346.332,91.436 346.891,91.824L346.892,91.824ZM356.3,98.849C357.126,99.51 357.947,100.176 358.759,100.849C359.284,101.283 360.061,101.21 360.495,100.685C360.929,100.16 360.856,99.384 360.332,98.949C359.509,98.268 358.678,97.592 357.84,96.922C357.308,96.496 356.532,96.583 356.106,97.115C355.68,97.647 355.767,98.423 356.299,98.849L356.3,98.849ZM365.243,106.469C366.026,107.18 366.801,107.895 367.568,108.614C368.064,109.08 368.845,109.055 369.311,108.558C369.777,108.061 369.751,107.28 369.255,106.814C368.479,106.087 367.694,105.363 366.9,104.643C366.395,104.185 365.615,104.222 365.157,104.727C364.699,105.231 364.737,106.012 365.242,106.469L365.243,106.469ZM373.696,114.621C374.437,115.38 375.167,116.141 375.886,116.903C376.353,117.398 377.134,117.421 377.629,116.953C378.125,116.486 378.148,115.705 377.681,115.209C376.952,114.437 376.211,113.667 375.461,112.898C374.985,112.41 374.205,112.401 373.716,112.877C373.229,113.352 373.219,114.133 373.696,114.621ZM381.63,123.275C382.324,124.081 383.003,124.886 383.67,125.69C384.105,126.214 384.882,126.287 385.407,125.852C385.93,125.417 386.003,124.64 385.569,124.116C384.893,123.301 384.204,122.484 383.501,121.667C383.057,121.15 382.278,121.091 381.761,121.535C381.245,121.979 381.186,122.758 381.63,123.275Z" style="fill:rgb(72,64,64);fill-rule:nonzero;"/>
        </g>
        <g transform="matrix(3.4404,0,0,3.24444,-0.0034404,-170.483)">
            <path d="M383.079,128.551C380.461,128.339 378.51,126.043 378.721,123.425C378.932,120.804 381.231,118.852 383.85,119.064C386.469,119.276 388.42,121.573 388.208,124.191C387.997,126.813 385.7,128.764 383.079,128.551Z" style="fill:rgb(72,64,64);fill-rule:nonzero;"/>
        </g>
        <g transform="matrix(3.4404,0,0,3.24444,-0.0034404,-170.483)">
            <path d="M182.251,118.596C179.63,118.382 177.679,116.087 177.892,113.467C178.104,110.847 180.399,108.896 183.021,109.107C185.64,109.319 187.591,111.616 187.378,114.236C187.167,116.855 184.87,118.807 182.251,118.596Z" style="fill:rgb(72,64,64);fill-rule:nonzero;"/>
        </g>
        <g transform="matrix(3.4404,0,0,2.64686,-0.0034404,-77.9803)">
            <path d="M388.465,121.858C388.991,121.101 389.665,120.313 390.477,119.513C390.893,119.103 390.898,118.432 390.488,118.016C390.077,117.599 389.407,117.595 388.991,118.005C388.102,118.881 387.342,119.764 386.726,120.651C386.392,121.131 386.511,121.791 386.992,122.125C387.472,122.458 388.132,122.339 388.466,121.858L388.465,121.858ZM396.178,115.131C397.055,114.581 397.986,114.039 398.965,113.507C399.479,113.228 399.669,112.586 399.39,112.072C399.112,111.558 398.469,111.367 397.956,111.646C396.939,112.198 395.97,112.762 395.054,113.337C394.558,113.647 394.408,114.3 394.718,114.795C395.029,115.291 395.681,115.441 396.177,115.131L396.178,115.131ZM405.587,110.406C406.572,110.008 407.584,109.624 408.624,109.256C409.174,109.061 409.462,108.456 409.267,107.905C409.072,107.354 408.467,107.065 407.917,107.26C406.849,107.639 405.808,108.033 404.794,108.443C404.251,108.662 403.99,109.279 404.208,109.821C404.428,110.363 405.044,110.625 405.587,110.406ZM415.645,107.127C416.683,106.862 417.74,106.615 418.81,106.386C419.381,106.265 419.746,105.702 419.625,105.131C419.502,104.559 418.94,104.194 418.369,104.316C417.27,104.55 416.188,104.804 415.123,105.075C414.555,105.219 414.213,105.795 414.357,106.362C414.501,106.928 415.077,107.271 415.644,107.127L415.645,107.127ZM426.048,105.172C427.117,105.042 428.195,104.931 429.281,104.842C429.863,104.794 430.296,104.283 430.249,103.7C430.201,103.118 429.689,102.684 429.107,102.732C427.994,102.823 426.887,102.937 425.791,103.071C425.209,103.142 424.797,103.67 424.869,104.251C424.939,104.831 425.467,105.244 426.048,105.172ZM436.607,104.586C437.685,104.6 438.766,104.637 439.85,104.698C440.433,104.731 440.933,104.285 440.966,103.701C440.999,103.117 440.552,102.618 439.969,102.585C438.855,102.521 437.743,102.483 436.634,102.469C436.049,102.462 435.569,102.929 435.562,103.514C435.554,104.099 436.022,104.579 436.607,104.586ZM447.125,105.492C448.187,105.665 449.249,105.865 450.307,106.092C450.878,106.214 451.441,105.85 451.563,105.279C451.686,104.707 451.322,104.144 450.75,104.022C449.658,103.787 448.562,103.581 447.466,103.402C446.889,103.308 446.344,103.699 446.25,104.276C446.156,104.853 446.547,105.397 447.125,105.492ZM457.352,108.038C458.377,108.388 459.39,108.764 460.392,109.165C460.934,109.381 461.55,109.117 461.767,108.574C461.984,108.031 461.719,107.416 461.177,107.199C460.143,106.785 459.096,106.397 458.036,106.035C457.482,105.846 456.88,106.141 456.692,106.695C456.502,107.248 456.798,107.85 457.352,108.038ZM467.026,112.255C467.984,112.766 468.927,113.298 469.856,113.85C470.358,114.148 471.007,113.982 471.305,113.479C471.604,112.977 471.438,112.328 470.936,112.029C469.981,111.461 469.009,110.913 468.022,110.387C467.505,110.112 466.865,110.307 466.589,110.823C466.314,111.339 466.509,111.98 467.026,112.255ZM475.961,117.901C476.836,118.545 477.695,119.206 478.536,119.881C478.991,120.247 479.657,120.174 480.023,119.718C480.388,119.262 480.315,118.596 479.86,118.231C478.998,117.537 478.116,116.858 477.216,116.196C476.745,115.849 476.083,115.95 475.736,116.421C475.388,116.891 475.489,117.554 475.96,117.901L475.961,117.901ZM484.037,124.734C484.821,125.492 485.584,126.262 486.327,127.04C486.73,127.463 487.4,127.479 487.823,127.075C488.246,126.672 488.261,126.002 487.858,125.579C487.097,124.78 486.313,123.991 485.508,123.212C485.087,122.805 484.417,122.816 484.01,123.237C483.604,123.657 483.615,124.327 484.036,124.734L484.037,124.734ZM491.139,132.576C491.819,133.436 492.471,134.301 493.097,135.167C493.439,135.641 494.101,135.747 494.575,135.405C495.049,135.063 495.156,134.401 494.814,133.927C494.169,133.036 493.499,132.147 492.8,131.264C492.437,130.805 491.771,130.726 491.312,131.089C490.853,131.451 490.775,132.117 491.138,132.576L491.139,132.576ZM497.071,141.315C497.618,142.272 498.127,143.224 498.599,144.166C498.861,144.689 499.497,144.901 500.02,144.639C500.543,144.378 500.755,143.741 500.494,143.218C500.002,142.24 499.474,141.254 498.91,140.265C498.62,139.757 497.972,139.58 497.464,139.87C496.957,140.16 496.78,140.807 497.07,141.315L497.071,141.315ZM501.374,150.881C501.71,151.937 501.988,152.966 502.206,153.962C502.33,154.533 502.894,154.895 503.464,154.77C504.036,154.646 504.398,154.082 504.274,153.511C504.042,152.445 503.746,151.352 503.39,150.237C503.211,149.68 502.616,149.372 502.059,149.55C501.501,149.728 501.194,150.324 501.373,150.881L501.374,150.881Z" style="fill:rgb(72,64,64);fill-rule:nonzero;"/>
        </g>
        <g transform="matrix(3.4404,0,0,3.24444,-0.0034404,-170.483)">
            <path d="M504.241,167.107C501.805,166.911 500.002,164.626 500.213,162.008C500.424,159.388 502.575,157.423 505.01,157.621C507.448,157.819 509.25,160.104 509.038,162.721C508.827,165.342 506.678,167.306 504.241,167.107Z" style="fill:rgb(72,64,64);fill-rule:nonzero;"/>
        </g>
        <g transform="matrix(3.4404,0,0,2.66353,-0.0034404,5.72355)">
            <path d="M187.223,309.609C187.958,310.331 188.697,311.052 189.44,311.77C189.916,312.23 190.674,312.217 191.134,311.741C191.594,311.265 191.581,310.507 191.105,310.047C190.367,309.334 189.632,308.618 188.902,307.9C188.43,307.436 187.671,307.443 187.208,307.915C186.744,308.387 186.751,309.145 187.223,309.609ZM195.571,317.535C196.333,318.231 197.102,318.923 197.875,319.61C198.37,320.05 199.126,320.005 199.566,319.511C200.005,319.016 199.961,318.259 199.467,317.82C198.702,317.139 197.941,316.454 197.185,315.765C196.696,315.319 195.938,315.354 195.493,315.843C195.047,316.332 195.083,317.089 195.572,317.535L195.571,317.535ZM204.287,325.083C205.086,325.737 205.893,326.385 206.708,327.027C207.226,327.437 207.98,327.348 208.39,326.829C208.799,326.309 208.71,325.556 208.192,325.146C207.388,324.513 206.592,323.873 205.802,323.228C205.29,322.809 204.535,322.885 204.117,323.398C203.698,323.91 203.774,324.664 204.287,325.083ZM213.466,332.081C214.312,332.679 215.167,333.269 216.03,333.852C216.578,334.222 217.322,334.077 217.692,333.529C218.062,332.981 217.917,332.236 217.37,331.866C216.521,331.294 215.681,330.713 214.849,330.125C214.308,329.743 213.561,329.871 213.179,330.412C212.797,330.952 212.925,331.699 213.466,332.081ZM223.18,338.366C224.073,338.891 224.975,339.407 225.887,339.914C226.465,340.236 227.195,340.027 227.516,339.449C227.837,338.871 227.629,338.141 227.051,337.82C226.156,337.323 225.271,336.816 224.394,336.301C223.824,335.966 223.089,336.156 222.753,336.726C222.418,337.296 222.609,338.031 223.179,338.366L223.18,338.366ZM233.42,343.77C234.358,344.21 235.305,344.639 236.263,345.058C236.869,345.323 237.575,345.046 237.839,344.44C238.104,343.834 237.828,343.128 237.222,342.863C236.285,342.453 235.356,342.032 234.437,341.601C233.837,341.321 233.125,341.579 232.844,342.178C232.564,342.777 232.822,343.49 233.421,343.77L233.42,343.77ZM244.135,348.172C245.11,348.517 246.094,348.852 247.089,349.176C247.718,349.38 248.394,349.037 248.599,348.407C248.804,347.778 248.46,347.102 247.832,346.897C246.855,346.58 245.89,346.252 244.936,345.914C244.312,345.692 243.627,346.019 243.406,346.642C243.185,347.266 243.511,347.95 244.135,348.172ZM255.227,351.506C256.229,351.755 257.241,351.993 258.263,352.22C258.909,352.363 259.548,351.956 259.691,351.31C259.834,350.664 259.428,350.024 258.782,349.881C257.78,349.658 256.786,349.425 255.805,349.181C255.163,349.021 254.513,349.412 254.353,350.054C254.194,350.696 254.584,351.346 255.227,351.506ZM266.579,353.773C267.598,353.928 268.626,354.073 269.666,354.207C270.321,354.292 270.921,353.828 271.006,353.172C271.091,352.516 270.627,351.916 269.972,351.831C268.952,351.7 267.941,351.557 266.941,351.404C266.287,351.305 265.675,351.754 265.576,352.408C265.476,353.062 265.925,353.673 266.58,353.773L266.579,353.773ZM278.079,355.028C279.105,355.097 280.142,355.155 281.188,355.204C281.848,355.234 282.409,354.723 282.439,354.062C282.469,353.401 281.958,352.841 281.297,352.81C280.269,352.763 279.25,352.705 278.24,352.637C277.58,352.593 277.007,353.091 276.963,353.751C276.918,354.411 277.417,354.983 278.078,355.028L278.079,355.028ZM289.654,355.327C290.695,355.295 291.737,355.241 292.78,355.167C293.439,355.12 293.936,354.547 293.889,353.887C293.842,353.227 293.269,352.73 292.61,352.777C291.598,352.849 290.588,352.901 289.581,352.932C288.918,352.952 288.399,353.505 288.419,354.166C288.44,354.828 288.993,355.347 289.655,355.326L289.654,355.327ZM301.217,354.114C302.243,353.933 303.268,353.734 304.292,353.517C304.938,353.38 305.352,352.744 305.214,352.097C305.078,351.45 304.442,351.036 303.795,351.173C302.797,351.385 301.799,351.579 300.802,351.755C300.15,351.869 299.714,352.49 299.83,353.141C299.944,353.793 300.564,354.228 301.216,354.114L301.217,354.114ZM312.506,351.392C313.5,351.09 314.494,350.772 315.483,350.44C316.11,350.229 316.448,349.55 316.237,348.923C316.027,348.296 315.348,347.958 314.721,348.169C313.751,348.494 312.782,348.805 311.81,349.1C311.176,349.293 310.82,349.962 311.012,350.595C311.205,351.228 311.874,351.585 312.507,351.392L312.506,351.392ZM323.404,347.451C324.359,347.052 325.311,346.64 326.26,346.215C326.864,345.945 327.134,345.236 326.864,344.632C326.594,344.029 325.885,343.758 325.282,344.028C324.351,344.445 323.417,344.849 322.479,345.241C321.869,345.496 321.581,346.198 321.835,346.808C322.09,347.418 322.792,347.706 323.403,347.451L323.404,347.451ZM333.869,342.524C334.788,342.044 335.702,341.553 336.612,341.053C337.191,340.734 337.403,340.006 337.083,339.426C336.765,338.847 336.037,338.635 335.458,338.954C334.562,339.446 333.663,339.929 332.758,340.401C332.171,340.708 331.945,341.432 332.252,342.019C332.559,342.605 333.283,342.831 333.87,342.525L333.869,342.524ZM343.904,336.781C344.786,336.232 345.663,335.675 346.534,335.111C347.088,334.751 347.247,334.009 346.887,333.454C346.527,332.899 345.786,332.74 345.231,333.1C344.373,333.657 343.508,334.206 342.638,334.746C342.076,335.096 341.904,335.835 342.253,336.396C342.603,336.958 343.341,337.13 343.904,336.781ZM353.51,330.343C354.356,329.735 355.195,329.12 356.028,328.5C356.558,328.105 356.667,327.354 356.272,326.824C355.876,326.293 355.126,326.184 354.596,326.579C353.774,327.192 352.946,327.798 352.112,328.398C351.574,328.784 351.452,329.533 351.838,330.07C352.224,330.607 352.972,330.729 353.51,330.343ZM362.679,323.302C363.485,322.643 364.282,321.979 365.071,321.312C365.576,320.885 365.638,320.129 365.211,319.624C364.784,319.119 364.029,319.056 363.524,319.483C362.745,320.142 361.958,320.797 361.162,321.448C360.649,321.867 360.574,322.622 360.993,323.134C361.412,323.646 362.167,323.721 362.679,323.302ZM371.392,315.718C372.158,315.009 372.913,314.298 373.658,313.586C374.135,313.128 374.152,312.37 373.695,311.892C373.238,311.414 372.479,311.397 372.001,311.855C371.266,312.558 370.521,313.26 369.765,313.96C369.279,314.409 369.25,315.167 369.699,315.652C370.148,316.138 370.906,316.167 371.392,315.718ZM379.624,307.61C380.345,306.852 381.054,306.094 381.75,305.337C382.198,304.85 382.166,304.092 381.678,303.645C381.192,303.197 380.434,303.229 379.987,303.716C379.3,304.463 378.601,305.21 377.889,305.958C377.432,306.437 377.451,307.195 377.929,307.651C378.409,308.107 379.167,308.089 379.624,307.61Z" style="fill:rgb(72,64,64);fill-rule:nonzero;"/>
        </g>
        <g transform="matrix(3.4404,0,0,3.24444,-0.0034404,-170.483)">
            <path d="M379.565,300.902C377.014,300.979 375.006,303.11 375.084,305.659C375.159,308.212 377.292,310.219 379.842,310.143C382.395,310.066 384.401,307.935 384.323,305.383C384.247,302.831 382.116,300.825 379.565,300.902Z" style="fill:rgb(72,64,64);fill-rule:nonzero;"/>
        </g>
        <g transform="matrix(3.4404,0,0,3.24444,-0.0034404,-170.483)">
            <path d="M184.275,300.648C181.723,300.726 179.717,302.856 179.795,305.407C179.871,307.959 182,309.966 184.553,309.889C187.104,309.814 189.111,307.682 189.033,305.13C188.957,302.58 186.826,300.572 184.275,300.648Z" style="fill:rgb(72,64,64);fill-rule:nonzero;"/>
        </g>
        <g transform="matrix(3.4404,0,0,2.14567,-0.0034404,171.865)">
            <path d="M384.267,313.071C384.688,313.882 385.392,314.784 386.372,315.837C386.758,316.251 387.409,316.273 387.824,315.886C388.239,315.498 388.26,314.848 387.874,314.433C386.968,313.468 386.356,312.644 386.096,312.131C385.836,311.626 385.216,311.427 384.711,311.687C384.207,311.947 384.008,312.566 384.268,313.071L384.267,313.071ZM391.869,320.761C392.678,321.397 393.543,322.049 394.459,322.711C394.919,323.043 395.562,322.939 395.894,322.479C396.226,322.018 396.123,321.376 395.663,321.043C394.769,320.398 393.926,319.763 393.139,319.144C392.692,318.794 392.046,318.871 391.696,319.318C391.345,319.764 391.422,320.41 391.87,320.761L391.869,320.761ZM400.549,326.745C401.451,327.293 402.38,327.84 403.337,328.381C403.832,328.661 404.458,328.487 404.739,327.993C405.019,327.499 404.845,326.871 404.351,326.591C403.412,326.061 402.501,325.526 401.619,324.989C401.133,324.693 400.5,324.848 400.206,325.333C399.911,325.817 400.065,326.45 400.55,326.745L400.549,326.745ZM409.817,331.74C410.78,332.195 411.762,332.64 412.762,333.073C413.283,333.299 413.888,333.059 414.114,332.538C414.339,332.017 414.099,331.412 413.579,331.186C412.6,330.763 411.639,330.327 410.696,329.881C410.182,329.638 409.569,329.857 409.327,330.371C409.083,330.884 409.303,331.497 409.817,331.74ZM419.573,335.709C420.587,336.056 421.615,336.386 422.655,336.697C423.198,336.86 423.771,336.551 423.934,336.008C424.097,335.464 423.788,334.891 423.245,334.728C422.231,334.424 421.228,334.102 420.237,333.763C419.699,333.58 419.115,333.867 418.931,334.404C418.748,334.942 419.035,335.526 419.573,335.709ZM429.749,338.477C430.803,338.689 431.866,338.879 432.936,339.045C433.497,339.132 434.022,338.747 434.109,338.186C434.196,337.625 433.811,337.1 433.25,337.013C432.212,336.852 431.179,336.667 430.155,336.461C429.597,336.349 429.055,336.709 428.943,337.266C428.832,337.823 429.191,338.365 429.749,338.477ZM440.224,339.774C441.109,339.813 441.997,339.832 442.887,339.832C443.083,339.832 443.278,339.832 443.473,339.83C444.041,339.825 444.497,339.361 444.492,338.793C444.487,338.225 444.023,337.769 443.456,337.774C443.267,337.775 443.077,337.776 442.886,337.776C442.027,337.776 441.169,337.757 440.314,337.72C439.747,337.695 439.266,338.135 439.242,338.702C439.216,339.269 439.657,339.749 440.224,339.774ZM450.779,339.399C451.861,339.28 452.932,339.138 453.993,338.973C454.553,338.886 454.938,338.361 454.851,337.8C454.764,337.239 454.239,336.854 453.678,336.941C452.647,337.101 451.605,337.239 450.554,337.355C449.99,337.417 449.582,337.925 449.644,338.489C449.707,339.054 450.214,339.461 450.779,339.399ZM461.159,337.496C462.212,337.225 463.252,336.932 464.279,336.621C464.822,336.456 465.128,335.881 464.963,335.338C464.798,334.795 464.224,334.488 463.681,334.653C462.682,334.957 461.67,335.241 460.646,335.505C460.095,335.647 459.765,336.208 459.907,336.758C460.048,337.307 460.609,337.638 461.16,337.496L461.159,337.496ZM471.168,334.164C472.175,333.751 473.166,333.319 474.139,332.872C474.655,332.634 474.88,332.024 474.643,331.508C474.406,330.992 473.795,330.766 473.28,331.004C472.332,331.439 471.368,331.859 470.387,332.262C469.862,332.478 469.611,333.078 469.827,333.604C470.042,334.129 470.643,334.38 471.168,334.164ZM480.634,329.512C481.58,328.966 482.504,328.406 483.407,327.834C483.886,327.53 484.028,326.894 483.724,326.415C483.419,325.935 482.785,325.793 482.305,326.097C481.427,326.654 480.527,327.2 479.606,327.731C479.114,328.015 478.946,328.644 479.23,329.136C479.514,329.628 480.143,329.796 480.635,329.512L480.634,329.512ZM489.393,323.626C490.26,322.951 491.099,322.268 491.908,321.577C492.339,321.209 492.391,320.56 492.022,320.128C491.654,319.696 491.005,319.645 490.574,320.013C489.788,320.683 488.973,321.347 488.13,322.003C487.682,322.352 487.601,322.997 487.95,323.445C488.297,323.894 488.944,323.974 489.392,323.626L489.393,323.626ZM497.219,316.519C497.98,315.704 498.699,314.888 499.374,314.075C499.736,313.638 499.675,312.99 499.239,312.628C498.801,312.265 498.154,312.325 497.792,312.762C497.143,313.543 496.451,314.329 495.716,315.115C495.329,315.53 495.35,316.18 495.765,316.568C496.179,316.955 496.831,316.934 497.218,316.519L497.219,316.519Z" style="fill:rgb(72,64,64);fill-rule:nonzero;"/>
        </g>
        <g transform="matrix(3.4404,0,0,3.24444,-0.0034404,-170.483)">
            <path d="M503.727,301.191C501.354,301.088 499.34,303.07 499.229,305.619C499.116,308.17 500.95,310.323 503.321,310.427C505.694,310.53 507.708,308.548 507.819,305.999C507.932,303.448 506.098,301.295 503.727,301.191Z" style="fill:rgb(72,64,64);fill-rule:nonzero;"/>
        </g>
    </g>
</svg>
